<mxfile host="app.diagrams.net" modified="2020-09-15T14:32:43.902Z" agent="5.0 (Windows NT 10.0; Win64; x64) AppleWebKit/537.36 (KHTML, like Gecko) Chrome/85.0.4183.102 Safari/537.36" etag="LMXNy1AK-5Y6uLtZaj2L" version="13.6.10" type="github">
  <diagram id="FDT7l4Sv0DSAjR52BYK0" name="Page-1">
    <mxGraphModel dx="1736" dy="802" grid="1" gridSize="10" guides="1" tooltips="1" connect="1" arrows="1" fold="1" page="1" pageScale="1" pageWidth="850" pageHeight="1100" math="0" shadow="0">
      <root>
        <mxCell id="0" />
        <mxCell id="1" parent="0" />
        <mxCell id="ymtZGtjgX0mRBfi773dE-3" style="edgeStyle=orthogonalEdgeStyle;rounded=0;orthogonalLoop=1;jettySize=auto;html=1;entryX=0;entryY=0.5;entryDx=0;entryDy=0;exitX=1;exitY=0.5;exitDx=0;exitDy=0;" edge="1" parent="1" source="ymtZGtjgX0mRBfi773dE-1" target="ymtZGtjgX0mRBfi773dE-2">
          <mxGeometry relative="1" as="geometry">
            <mxPoint x="210" y="70" as="sourcePoint" />
          </mxGeometry>
        </mxCell>
        <mxCell id="ymtZGtjgX0mRBfi773dE-38" style="edgeStyle=orthogonalEdgeStyle;rounded=0;orthogonalLoop=1;jettySize=auto;html=1;exitX=0.5;exitY=1;exitDx=0;exitDy=0;entryX=0.5;entryY=0;entryDx=0;entryDy=0;" edge="1" parent="1" source="ymtZGtjgX0mRBfi773dE-1" target="ymtZGtjgX0mRBfi773dE-4">
          <mxGeometry relative="1" as="geometry" />
        </mxCell>
        <mxCell id="ymtZGtjgX0mRBfi773dE-78" style="edgeStyle=orthogonalEdgeStyle;rounded=0;orthogonalLoop=1;jettySize=auto;html=1;exitX=1;exitY=0.5;exitDx=0;exitDy=0;entryX=0.5;entryY=0;entryDx=0;entryDy=0;" edge="1" parent="1" source="ymtZGtjgX0mRBfi773dE-1" target="ymtZGtjgX0mRBfi773dE-69">
          <mxGeometry relative="1" as="geometry" />
        </mxCell>
        <mxCell id="ymtZGtjgX0mRBfi773dE-79" style="edgeStyle=orthogonalEdgeStyle;rounded=0;orthogonalLoop=1;jettySize=auto;html=1;exitX=1;exitY=0.5;exitDx=0;exitDy=0;" edge="1" parent="1" source="ymtZGtjgX0mRBfi773dE-1" target="ymtZGtjgX0mRBfi773dE-75">
          <mxGeometry relative="1" as="geometry" />
        </mxCell>
        <mxCell id="ymtZGtjgX0mRBfi773dE-80" style="edgeStyle=orthogonalEdgeStyle;rounded=0;orthogonalLoop=1;jettySize=auto;html=1;exitX=1;exitY=0.5;exitDx=0;exitDy=0;entryX=0.5;entryY=0;entryDx=0;entryDy=0;" edge="1" parent="1" source="ymtZGtjgX0mRBfi773dE-1" target="ymtZGtjgX0mRBfi773dE-65">
          <mxGeometry relative="1" as="geometry" />
        </mxCell>
        <mxCell id="ymtZGtjgX0mRBfi773dE-1" value="MD" style="rounded=0;whiteSpace=wrap;html=1;fillColor=#1ba1e2;strokeColor=#006EAF;fontColor=#ffffff;" vertex="1" parent="1">
          <mxGeometry x="80" y="40" width="120" height="60" as="geometry" />
        </mxCell>
        <mxCell id="ymtZGtjgX0mRBfi773dE-2" value="MD Ta" style="rounded=0;whiteSpace=wrap;html=1;fillColor=#1ba1e2;strokeColor=#006EAF;fontColor=#ffffff;" vertex="1" parent="1">
          <mxGeometry x="240" y="110" width="100" height="50" as="geometry" />
        </mxCell>
        <mxCell id="ymtZGtjgX0mRBfi773dE-6" style="edgeStyle=orthogonalEdgeStyle;rounded=0;orthogonalLoop=1;jettySize=auto;html=1;exitX=1;exitY=0.5;exitDx=0;exitDy=0;" edge="1" parent="1" source="ymtZGtjgX0mRBfi773dE-4" target="ymtZGtjgX0mRBfi773dE-5">
          <mxGeometry relative="1" as="geometry" />
        </mxCell>
        <mxCell id="ymtZGtjgX0mRBfi773dE-10" style="edgeStyle=orthogonalEdgeStyle;rounded=0;orthogonalLoop=1;jettySize=auto;html=1;exitX=0.5;exitY=1;exitDx=0;exitDy=0;entryX=0.5;entryY=0;entryDx=0;entryDy=0;" edge="1" parent="1" source="ymtZGtjgX0mRBfi773dE-4" target="ymtZGtjgX0mRBfi773dE-9">
          <mxGeometry relative="1" as="geometry">
            <Array as="points">
              <mxPoint x="350" y="460" />
              <mxPoint x="600" y="460" />
            </Array>
          </mxGeometry>
        </mxCell>
        <mxCell id="ymtZGtjgX0mRBfi773dE-11" style="edgeStyle=orthogonalEdgeStyle;rounded=0;orthogonalLoop=1;jettySize=auto;html=1;exitX=0.5;exitY=1;exitDx=0;exitDy=0;" edge="1" parent="1" source="ymtZGtjgX0mRBfi773dE-4" target="ymtZGtjgX0mRBfi773dE-7">
          <mxGeometry relative="1" as="geometry">
            <Array as="points">
              <mxPoint x="350" y="460" />
              <mxPoint x="400" y="460" />
            </Array>
          </mxGeometry>
        </mxCell>
        <mxCell id="ymtZGtjgX0mRBfi773dE-12" style="edgeStyle=orthogonalEdgeStyle;rounded=0;orthogonalLoop=1;jettySize=auto;html=1;exitX=0.5;exitY=1;exitDx=0;exitDy=0;" edge="1" parent="1" source="ymtZGtjgX0mRBfi773dE-4" target="ymtZGtjgX0mRBfi773dE-8">
          <mxGeometry relative="1" as="geometry">
            <Array as="points">
              <mxPoint x="350" y="460" />
              <mxPoint x="200" y="460" />
            </Array>
          </mxGeometry>
        </mxCell>
        <mxCell id="ymtZGtjgX0mRBfi773dE-36" style="edgeStyle=orthogonalEdgeStyle;rounded=0;orthogonalLoop=1;jettySize=auto;html=1;exitX=1;exitY=0.5;exitDx=0;exitDy=0;" edge="1" parent="1" source="ymtZGtjgX0mRBfi773dE-4" target="ymtZGtjgX0mRBfi773dE-13">
          <mxGeometry relative="1" as="geometry" />
        </mxCell>
        <mxCell id="ymtZGtjgX0mRBfi773dE-37" style="edgeStyle=orthogonalEdgeStyle;rounded=0;orthogonalLoop=1;jettySize=auto;html=1;exitX=1;exitY=0.5;exitDx=0;exitDy=0;" edge="1" parent="1" source="ymtZGtjgX0mRBfi773dE-4" target="ymtZGtjgX0mRBfi773dE-14">
          <mxGeometry relative="1" as="geometry" />
        </mxCell>
        <mxCell id="ymtZGtjgX0mRBfi773dE-4" value="Commercial Head" style="rounded=0;whiteSpace=wrap;html=1;fillColor=#1ba1e2;strokeColor=#006EAF;fontColor=#ffffff;" vertex="1" parent="1">
          <mxGeometry x="290" y="300" width="120" height="60" as="geometry" />
        </mxCell>
        <mxCell id="ymtZGtjgX0mRBfi773dE-5" value="Commercial Analyst" style="rounded=0;whiteSpace=wrap;html=1;fillColor=#1ba1e2;strokeColor=#006EAF;fontColor=#ffffff;" vertex="1" parent="1">
          <mxGeometry x="510" y="340" width="120" height="60" as="geometry" />
        </mxCell>
        <mxCell id="ymtZGtjgX0mRBfi773dE-28" style="edgeStyle=orthogonalEdgeStyle;rounded=0;orthogonalLoop=1;jettySize=auto;html=1;exitX=0.5;exitY=1;exitDx=0;exitDy=0;" edge="1" parent="1" source="ymtZGtjgX0mRBfi773dE-7" target="ymtZGtjgX0mRBfi773dE-26">
          <mxGeometry relative="1" as="geometry" />
        </mxCell>
        <mxCell id="ymtZGtjgX0mRBfi773dE-7" value="Purchase Head" style="rounded=0;whiteSpace=wrap;html=1;fillColor=#1ba1e2;strokeColor=#006EAF;fontColor=#ffffff;" vertex="1" parent="1">
          <mxGeometry x="340" y="500" width="120" height="60" as="geometry" />
        </mxCell>
        <mxCell id="ymtZGtjgX0mRBfi773dE-23" value="" style="edgeStyle=orthogonalEdgeStyle;rounded=0;orthogonalLoop=1;jettySize=auto;html=1;" edge="1" parent="1" source="ymtZGtjgX0mRBfi773dE-8" target="ymtZGtjgX0mRBfi773dE-22">
          <mxGeometry relative="1" as="geometry" />
        </mxCell>
        <mxCell id="ymtZGtjgX0mRBfi773dE-25" style="edgeStyle=orthogonalEdgeStyle;rounded=0;orthogonalLoop=1;jettySize=auto;html=1;exitX=0.5;exitY=1;exitDx=0;exitDy=0;entryX=0.5;entryY=0;entryDx=0;entryDy=0;" edge="1" parent="1" source="ymtZGtjgX0mRBfi773dE-8" target="ymtZGtjgX0mRBfi773dE-24">
          <mxGeometry relative="1" as="geometry" />
        </mxCell>
        <mxCell id="ymtZGtjgX0mRBfi773dE-8" value="Stores manager-2" style="rounded=0;whiteSpace=wrap;html=1;fillColor=#1ba1e2;strokeColor=#006EAF;fontColor=#ffffff;" vertex="1" parent="1">
          <mxGeometry x="140" y="500" width="120" height="60" as="geometry" />
        </mxCell>
        <mxCell id="ymtZGtjgX0mRBfi773dE-34" style="edgeStyle=orthogonalEdgeStyle;rounded=0;orthogonalLoop=1;jettySize=auto;html=1;exitX=0.5;exitY=1;exitDx=0;exitDy=0;" edge="1" parent="1" source="ymtZGtjgX0mRBfi773dE-9" target="ymtZGtjgX0mRBfi773dE-29">
          <mxGeometry relative="1" as="geometry" />
        </mxCell>
        <mxCell id="ymtZGtjgX0mRBfi773dE-35" style="edgeStyle=orthogonalEdgeStyle;rounded=0;orthogonalLoop=1;jettySize=auto;html=1;exitX=0.5;exitY=1;exitDx=0;exitDy=0;" edge="1" parent="1" source="ymtZGtjgX0mRBfi773dE-9" target="ymtZGtjgX0mRBfi773dE-33">
          <mxGeometry relative="1" as="geometry" />
        </mxCell>
        <mxCell id="ymtZGtjgX0mRBfi773dE-9" value="Logistics Manager" style="rounded=0;whiteSpace=wrap;html=1;fillColor=#1ba1e2;strokeColor=#006EAF;fontColor=#ffffff;" vertex="1" parent="1">
          <mxGeometry x="540" y="500" width="120" height="60" as="geometry" />
        </mxCell>
        <mxCell id="ymtZGtjgX0mRBfi773dE-19" style="edgeStyle=orthogonalEdgeStyle;rounded=0;orthogonalLoop=1;jettySize=auto;html=1;exitX=0.5;exitY=1;exitDx=0;exitDy=0;" edge="1" parent="1" source="ymtZGtjgX0mRBfi773dE-13" target="ymtZGtjgX0mRBfi773dE-17">
          <mxGeometry relative="1" as="geometry" />
        </mxCell>
        <mxCell id="ymtZGtjgX0mRBfi773dE-20" style="edgeStyle=orthogonalEdgeStyle;rounded=0;orthogonalLoop=1;jettySize=auto;html=1;exitX=0.5;exitY=1;exitDx=0;exitDy=0;" edge="1" parent="1" source="ymtZGtjgX0mRBfi773dE-13" target="ymtZGtjgX0mRBfi773dE-16">
          <mxGeometry relative="1" as="geometry" />
        </mxCell>
        <mxCell id="ymtZGtjgX0mRBfi773dE-13" value="F&amp;amp;A Head" style="rounded=0;whiteSpace=wrap;html=1;fillColor=#1ba1e2;strokeColor=#006EAF;fontColor=#ffffff;" vertex="1" parent="1">
          <mxGeometry x="830" y="500" width="120" height="60" as="geometry" />
        </mxCell>
        <mxCell id="ymtZGtjgX0mRBfi773dE-21" style="edgeStyle=orthogonalEdgeStyle;rounded=0;orthogonalLoop=1;jettySize=auto;html=1;exitX=0.5;exitY=1;exitDx=0;exitDy=0;entryX=0.5;entryY=0;entryDx=0;entryDy=0;" edge="1" parent="1" source="ymtZGtjgX0mRBfi773dE-14" target="ymtZGtjgX0mRBfi773dE-15">
          <mxGeometry relative="1" as="geometry" />
        </mxCell>
        <mxCell id="ymtZGtjgX0mRBfi773dE-14" value="IT Team" style="rounded=0;whiteSpace=wrap;html=1;fillColor=#1ba1e2;strokeColor=#006EAF;fontColor=#ffffff;" vertex="1" parent="1">
          <mxGeometry x="1015" y="500" width="120" height="60" as="geometry" />
        </mxCell>
        <mxCell id="ymtZGtjgX0mRBfi773dE-15" value="IT Support - 3" style="rounded=0;whiteSpace=wrap;html=1;fillColor=#f0a30a;strokeColor=#BD7000;fontColor=#ffffff;" vertex="1" parent="1">
          <mxGeometry x="1020" y="670" width="110" height="50" as="geometry" />
        </mxCell>
        <mxCell id="ymtZGtjgX0mRBfi773dE-16" value="Finance Officer - 4" style="rounded=0;whiteSpace=wrap;html=1;fillColor=#f0a30a;strokeColor=#BD7000;fontColor=#ffffff;" vertex="1" parent="1">
          <mxGeometry x="900" y="670" width="110" height="50" as="geometry" />
        </mxCell>
        <mxCell id="ymtZGtjgX0mRBfi773dE-17" value="Finance Officer - 2" style="rounded=0;whiteSpace=wrap;html=1;fillColor=#1ba1e2;strokeColor=#006EAF;fontColor=#ffffff;" vertex="1" parent="1">
          <mxGeometry x="770" y="670" width="110" height="50" as="geometry" />
        </mxCell>
        <mxCell id="ymtZGtjgX0mRBfi773dE-22" value="Stores Support-2" style="whiteSpace=wrap;html=1;rounded=0;fillColor=#1ba1e2;strokeColor=#006EAF;fontColor=#ffffff;" vertex="1" parent="1">
          <mxGeometry x="70" y="660" width="120" height="60" as="geometry" />
        </mxCell>
        <mxCell id="ymtZGtjgX0mRBfi773dE-24" value="Stores Support" style="rounded=0;whiteSpace=wrap;html=1;fillColor=#f0a30a;strokeColor=#BD7000;fontColor=#ffffff;" vertex="1" parent="1">
          <mxGeometry x="200" y="660" width="120" height="60" as="geometry" />
        </mxCell>
        <mxCell id="ymtZGtjgX0mRBfi773dE-26" value="Purchase Support-2" style="rounded=0;whiteSpace=wrap;html=1;fillColor=#f0a30a;strokeColor=#BD7000;fontColor=#ffffff;" vertex="1" parent="1">
          <mxGeometry x="340" y="660" width="120" height="60" as="geometry" />
        </mxCell>
        <mxCell id="ymtZGtjgX0mRBfi773dE-29" value="Logistics Support-2" style="rounded=0;whiteSpace=wrap;html=1;fillColor=#1ba1e2;strokeColor=#006EAF;fontColor=#ffffff;" vertex="1" parent="1">
          <mxGeometry x="470" y="660" width="120" height="60" as="geometry" />
        </mxCell>
        <mxCell id="ymtZGtjgX0mRBfi773dE-33" value="Logistics Support - 6" style="rounded=0;whiteSpace=wrap;html=1;fillColor=#f0a30a;strokeColor=#BD7000;fontColor=#ffffff;" vertex="1" parent="1">
          <mxGeometry x="600" y="660" width="120" height="60" as="geometry" />
        </mxCell>
        <mxCell id="ymtZGtjgX0mRBfi773dE-39" value="HR Support -2" style="rounded=0;whiteSpace=wrap;html=1;fillColor=#1ba1e2;strokeColor=#006EAF;fontColor=#ffffff;" vertex="1" parent="1">
          <mxGeometry x="1180" y="670" width="100" height="50" as="geometry" />
        </mxCell>
        <mxCell id="ymtZGtjgX0mRBfi773dE-40" value="HR Support" style="rounded=0;whiteSpace=wrap;html=1;fillColor=#f0a30a;strokeColor=#BD7000;fontColor=#ffffff;" vertex="1" parent="1">
          <mxGeometry x="1310" y="670" width="100" height="50" as="geometry" />
        </mxCell>
        <mxCell id="ymtZGtjgX0mRBfi773dE-43" style="edgeStyle=orthogonalEdgeStyle;rounded=0;orthogonalLoop=1;jettySize=auto;html=1;exitX=0.5;exitY=1;exitDx=0;exitDy=0;entryX=0.5;entryY=0;entryDx=0;entryDy=0;" edge="1" parent="1" source="ymtZGtjgX0mRBfi773dE-42" target="ymtZGtjgX0mRBfi773dE-39">
          <mxGeometry relative="1" as="geometry" />
        </mxCell>
        <mxCell id="ymtZGtjgX0mRBfi773dE-44" style="edgeStyle=orthogonalEdgeStyle;rounded=0;orthogonalLoop=1;jettySize=auto;html=1;exitX=0.5;exitY=1;exitDx=0;exitDy=0;" edge="1" parent="1" source="ymtZGtjgX0mRBfi773dE-42" target="ymtZGtjgX0mRBfi773dE-40">
          <mxGeometry relative="1" as="geometry" />
        </mxCell>
        <mxCell id="ymtZGtjgX0mRBfi773dE-42" value="HR Head" style="rounded=0;whiteSpace=wrap;html=1;fillColor=#1ba1e2;strokeColor=#006EAF;fontColor=#ffffff;" vertex="1" parent="1">
          <mxGeometry x="1230" y="500" width="120" height="60" as="geometry" />
        </mxCell>
        <mxCell id="ymtZGtjgX0mRBfi773dE-45" value="Transport Manager" style="rounded=0;whiteSpace=wrap;html=1;fillColor=#1ba1e2;strokeColor=#006EAF;fontColor=#ffffff;" vertex="1" parent="1">
          <mxGeometry x="1440" y="380" width="120" height="60" as="geometry" />
        </mxCell>
        <mxCell id="ymtZGtjgX0mRBfi773dE-50" value="" style="edgeStyle=orthogonalEdgeStyle;rounded=0;orthogonalLoop=1;jettySize=auto;html=1;" edge="1" parent="1" source="ymtZGtjgX0mRBfi773dE-47" target="ymtZGtjgX0mRBfi773dE-49">
          <mxGeometry relative="1" as="geometry" />
        </mxCell>
        <mxCell id="ymtZGtjgX0mRBfi773dE-59" style="edgeStyle=orthogonalEdgeStyle;rounded=0;orthogonalLoop=1;jettySize=auto;html=1;exitX=0.5;exitY=1;exitDx=0;exitDy=0;" edge="1" parent="1" source="ymtZGtjgX0mRBfi773dE-47" target="ymtZGtjgX0mRBfi773dE-56">
          <mxGeometry relative="1" as="geometry" />
        </mxCell>
        <mxCell id="ymtZGtjgX0mRBfi773dE-47" value="Estate Manager" style="rounded=0;whiteSpace=wrap;html=1;fillColor=#1ba1e2;strokeColor=#006EAF;fontColor=#ffffff;" vertex="1" parent="1">
          <mxGeometry x="1610" y="380" width="120" height="60" as="geometry" />
        </mxCell>
        <mxCell id="ymtZGtjgX0mRBfi773dE-54" style="edgeStyle=orthogonalEdgeStyle;rounded=0;orthogonalLoop=1;jettySize=auto;html=1;exitX=0.5;exitY=1;exitDx=0;exitDy=0;entryX=0.5;entryY=0;entryDx=0;entryDy=0;" edge="1" parent="1" source="ymtZGtjgX0mRBfi773dE-49" target="ymtZGtjgX0mRBfi773dE-52">
          <mxGeometry relative="1" as="geometry" />
        </mxCell>
        <mxCell id="ymtZGtjgX0mRBfi773dE-55" style="edgeStyle=orthogonalEdgeStyle;rounded=0;orthogonalLoop=1;jettySize=auto;html=1;exitX=0.5;exitY=1;exitDx=0;exitDy=0;" edge="1" parent="1" source="ymtZGtjgX0mRBfi773dE-49" target="ymtZGtjgX0mRBfi773dE-51">
          <mxGeometry relative="1" as="geometry" />
        </mxCell>
        <mxCell id="ymtZGtjgX0mRBfi773dE-49" value="Repair &amp;amp; Maintenance" style="whiteSpace=wrap;html=1;rounded=0;fontColor=#ffffff;strokeColor=#BD7000;fillColor=#f0a30a;" vertex="1" parent="1">
          <mxGeometry x="1510" y="480" width="120" height="60" as="geometry" />
        </mxCell>
        <mxCell id="ymtZGtjgX0mRBfi773dE-51" value="Plumbing" style="rounded=0;whiteSpace=wrap;html=1;fillColor=#f0a30a;strokeColor=#BD7000;fontColor=#ffffff;" vertex="1" parent="1">
          <mxGeometry x="1580" y="670" width="110" height="50" as="geometry" />
        </mxCell>
        <mxCell id="ymtZGtjgX0mRBfi773dE-52" value="Electrical" style="rounded=0;whiteSpace=wrap;html=1;fillColor=#f0a30a;strokeColor=#BD7000;fontColor=#ffffff;" vertex="1" parent="1">
          <mxGeometry x="1440" y="670" width="110" height="50" as="geometry" />
        </mxCell>
        <mxCell id="ymtZGtjgX0mRBfi773dE-58" value="" style="edgeStyle=orthogonalEdgeStyle;rounded=0;orthogonalLoop=1;jettySize=auto;html=1;" edge="1" parent="1" source="ymtZGtjgX0mRBfi773dE-56" target="ymtZGtjgX0mRBfi773dE-57">
          <mxGeometry relative="1" as="geometry" />
        </mxCell>
        <mxCell id="ymtZGtjgX0mRBfi773dE-56" value="Mess Manager-1" style="rounded=0;whiteSpace=wrap;html=1;fillColor=#1ba1e2;strokeColor=#006EAF;fontColor=#ffffff;" vertex="1" parent="1">
          <mxGeometry x="1700" y="480" width="120" height="60" as="geometry" />
        </mxCell>
        <mxCell id="ymtZGtjgX0mRBfi773dE-57" value="Mess Support -8" style="rounded=0;whiteSpace=wrap;html=1;fillColor=#f0a30a;strokeColor=#BD7000;fontColor=#ffffff;" vertex="1" parent="1">
          <mxGeometry x="1700" y="670" width="120" height="50" as="geometry" />
        </mxCell>
        <mxCell id="ymtZGtjgX0mRBfi773dE-62" value="" style="edgeStyle=orthogonalEdgeStyle;rounded=0;orthogonalLoop=1;jettySize=auto;html=1;" edge="1" parent="1" source="ymtZGtjgX0mRBfi773dE-60" target="ymtZGtjgX0mRBfi773dE-61">
          <mxGeometry relative="1" as="geometry" />
        </mxCell>
        <mxCell id="ymtZGtjgX0mRBfi773dE-64" style="edgeStyle=orthogonalEdgeStyle;rounded=0;orthogonalLoop=1;jettySize=auto;html=1;exitX=0.5;exitY=1;exitDx=0;exitDy=0;entryX=0.5;entryY=0;entryDx=0;entryDy=0;" edge="1" parent="1" source="ymtZGtjgX0mRBfi773dE-60" target="ymtZGtjgX0mRBfi773dE-63">
          <mxGeometry relative="1" as="geometry" />
        </mxCell>
        <mxCell id="ymtZGtjgX0mRBfi773dE-60" value="Horticulturist" style="rounded=0;whiteSpace=wrap;html=1;fillColor=#f0a30a;strokeColor=#BD7000;fontColor=#ffffff;" vertex="1" parent="1">
          <mxGeometry x="1840" y="380" width="120" height="60" as="geometry" />
        </mxCell>
        <mxCell id="ymtZGtjgX0mRBfi773dE-61" value="Gardener-6" style="whiteSpace=wrap;html=1;rounded=0;fillColor=#f0a30a;strokeColor=#BD7000;fontColor=#ffffff;" vertex="1" parent="1">
          <mxGeometry x="1840" y="580" width="120" height="60" as="geometry" />
        </mxCell>
        <mxCell id="ymtZGtjgX0mRBfi773dE-63" value="Horticulturist Support-4" style="rounded=0;whiteSpace=wrap;html=1;fillColor=#f0a30a;strokeColor=#BD7000;fontColor=#ffffff;" vertex="1" parent="1">
          <mxGeometry x="1910" y="490" width="120" height="60" as="geometry" />
        </mxCell>
        <mxCell id="ymtZGtjgX0mRBfi773dE-66" style="edgeStyle=orthogonalEdgeStyle;rounded=0;orthogonalLoop=1;jettySize=auto;html=1;exitX=0.5;exitY=1;exitDx=0;exitDy=0;entryX=0.5;entryY=0;entryDx=0;entryDy=0;" edge="1" parent="1" source="ymtZGtjgX0mRBfi773dE-65" target="ymtZGtjgX0mRBfi773dE-45">
          <mxGeometry relative="1" as="geometry" />
        </mxCell>
        <mxCell id="ymtZGtjgX0mRBfi773dE-67" style="edgeStyle=orthogonalEdgeStyle;rounded=0;orthogonalLoop=1;jettySize=auto;html=1;exitX=0.5;exitY=1;exitDx=0;exitDy=0;entryX=0.5;entryY=0;entryDx=0;entryDy=0;" edge="1" parent="1" source="ymtZGtjgX0mRBfi773dE-65" target="ymtZGtjgX0mRBfi773dE-47">
          <mxGeometry relative="1" as="geometry" />
        </mxCell>
        <mxCell id="ymtZGtjgX0mRBfi773dE-68" style="edgeStyle=orthogonalEdgeStyle;rounded=0;orthogonalLoop=1;jettySize=auto;html=1;exitX=1;exitY=0.5;exitDx=0;exitDy=0;entryX=0.5;entryY=0;entryDx=0;entryDy=0;" edge="1" parent="1" source="ymtZGtjgX0mRBfi773dE-65" target="ymtZGtjgX0mRBfi773dE-60">
          <mxGeometry relative="1" as="geometry" />
        </mxCell>
        <mxCell id="ymtZGtjgX0mRBfi773dE-65" value="Admin Head" style="rounded=0;whiteSpace=wrap;html=1;fillColor=#1ba1e2;strokeColor=#006EAF;fontColor=#ffffff;" vertex="1" parent="1">
          <mxGeometry x="1530" y="260" width="120" height="60" as="geometry" />
        </mxCell>
        <mxCell id="ymtZGtjgX0mRBfi773dE-73" style="edgeStyle=orthogonalEdgeStyle;rounded=0;orthogonalLoop=1;jettySize=auto;html=1;exitX=0.5;exitY=1;exitDx=0;exitDy=0;" edge="1" parent="1" source="ymtZGtjgX0mRBfi773dE-69" target="ymtZGtjgX0mRBfi773dE-70">
          <mxGeometry relative="1" as="geometry" />
        </mxCell>
        <mxCell id="ymtZGtjgX0mRBfi773dE-74" style="edgeStyle=orthogonalEdgeStyle;rounded=0;orthogonalLoop=1;jettySize=auto;html=1;exitX=0.5;exitY=1;exitDx=0;exitDy=0;entryX=0.5;entryY=0;entryDx=0;entryDy=0;" edge="1" parent="1" source="ymtZGtjgX0mRBfi773dE-69" target="ymtZGtjgX0mRBfi773dE-71">
          <mxGeometry relative="1" as="geometry" />
        </mxCell>
        <mxCell id="ymtZGtjgX0mRBfi773dE-69" value="HSE" style="rounded=0;whiteSpace=wrap;html=1;fillColor=#f0a30a;strokeColor=#BD7000;fontColor=#ffffff;" vertex="1" parent="1">
          <mxGeometry x="2060" y="260" width="120" height="60" as="geometry" />
        </mxCell>
        <mxCell id="ymtZGtjgX0mRBfi773dE-70" value="Fire officer" style="rounded=0;whiteSpace=wrap;html=1;fillColor=#f0a30a;strokeColor=#BD7000;fontColor=#ffffff;" vertex="1" parent="1">
          <mxGeometry x="2000" y="380" width="120" height="60" as="geometry" />
        </mxCell>
        <mxCell id="ymtZGtjgX0mRBfi773dE-71" value="Safety officer" style="rounded=0;whiteSpace=wrap;html=1;fillColor=#f0a30a;strokeColor=#BD7000;fontColor=#ffffff;" vertex="1" parent="1">
          <mxGeometry x="2150" y="380" width="120" height="60" as="geometry" />
        </mxCell>
        <mxCell id="ymtZGtjgX0mRBfi773dE-77" style="edgeStyle=orthogonalEdgeStyle;rounded=0;orthogonalLoop=1;jettySize=auto;html=1;exitX=0.5;exitY=1;exitDx=0;exitDy=0;entryX=0.5;entryY=0;entryDx=0;entryDy=0;" edge="1" parent="1" source="ymtZGtjgX0mRBfi773dE-75" target="ymtZGtjgX0mRBfi773dE-76">
          <mxGeometry relative="1" as="geometry" />
        </mxCell>
        <mxCell id="ymtZGtjgX0mRBfi773dE-75" value="Chief Security Officer" style="rounded=0;whiteSpace=wrap;html=1;fillColor=#f0a30a;strokeColor=#BD7000;fontColor=#ffffff;" vertex="1" parent="1">
          <mxGeometry x="2280" y="260" width="120" height="60" as="geometry" />
        </mxCell>
        <mxCell id="ymtZGtjgX0mRBfi773dE-76" value="Asst. Security Officer-2" style="rounded=0;whiteSpace=wrap;html=1;fillColor=#f0a30a;strokeColor=#BD7000;fontColor=#ffffff;" vertex="1" parent="1">
          <mxGeometry x="2280" y="380" width="120" height="60" as="geometry" />
        </mxCell>
      </root>
    </mxGraphModel>
  </diagram>
</mxfile>
